<svg aria-hidden="true" style="position: absolute; width: 0; height: 0; overflow: hidden;" version="1.1"
    xmlns="http://www.w3.org/2000/svg" xmlns:xlink="http://www.w3.org/1999/xlink">
    <defs>

        <symbol id="icon-logo" viewBox="0 0 152 16">
            <path
                d="M12.2801 12.5042L2.01681 0H0V16H0.985995V2.46499L12.1008 15.9104L12.1457 16H13.2213V0H12.2801V12.5042Z">
            </path>
            <path
                d="M26.8903 0L19.8987 16H21.0191L23.0359 11.3838H30.5205L32.5373 16H35.092L28.0555 0H26.8903ZM30.1172 10.4874H23.3945L26.7558 2.82353L30.1172 10.4874Z">
            </path>
            <path
                d="M49.8384 9.18768L44.3258 0.0896359L44.2361 0H41.7263V16H42.7123V2.01681L48.7627 11.9664H49.3454L55.351 2.01681V16H57.816V0H55.3958L49.8384 9.18768Z">
            </path>
            <path
                d="M68.4827 8.33613H75.4743V7.43978H68.4827V0.896359H77.2222V0H66.0625V16H77.4463V15.1036H68.4827V8.33613Z">
            </path>
            <path d="M86.9045 0H84.4844V16H95.3303V15.1036H86.9045V0Z"></path>
            <path
                d="M107.743 0L100.707 16H101.827L103.844 11.3838H111.329L113.346 16H115.9L108.909 0H107.743ZM110.925 10.4874H104.203L107.564 2.82353L110.925 10.4874Z">
            </path>
            <path
                d="M121.681 0.896359H130.958L121.412 15.2829L121.367 15.3277V16H133.782V15.1036H124.235L133.782 0.717087V0.627451V0H121.681V0.896359Z">
            </path>
            <path
                d="M151.887 0.627451V0H139.786V0.896359H149.064L139.517 15.2829L139.473 15.3277V16H151.887V15.1036H142.341L151.887 0.717087V0.627451Z">
            </path>
        </symbol>

        <symbol id="icon-nav-menu" width="35" height="13" viewBox="0 0 35 13">
            <rect x="3" y="1" width="33" height="1" fill="#fff"></rect>
            <rect x="3" y="6" width="20" height="1" fill="#fff"></rect>
            <rect x="3" y="11" width="10" height="1" fill="#fff"></rect>
        </symbol>

        <symbol id="icon-chat" viewBox="0 0 42 32">
            <path
                d="M35.652 14.023c-0.264-0.082-0.544 0.062-0.628 0.325-0.083 0.263 0.062 0.544 0.325 0.628 3.908 1.245 5.651 3.102 5.651 6.024 0 2.599-2.371 4.616-3.783 5.588-0.136 0.094-0.217 0.247-0.217 0.412v3.823c-0.73-0.272-2.003-0.89-3.126-2.155-0.117-0.131-0.295-0.191-0.468-0.159-0.285 0.055-0.576 0.133-0.871 0.212-0.51 0.137-1.036 0.279-1.535 0.279-2.568 0-4.366-0.552-6.204-1.903-0.224-0.164-0.535-0.115-0.699 0.107-0.164 0.223-0.116 0.535 0.106 0.699 2.027 1.49 3.996 2.097 6.797 2.097 0.631 0 1.223-0.159 1.795-0.313 0.178-0.049 0.355-0.097 0.53-0.138 1.869 1.974 3.983 2.423 4.075 2.441 0.033 0.007 0.066 0.010 0.1 0.010 0.114 0 0.227-0.039 0.316-0.113 0.117-0.095 0.184-0.237 0.184-0.387v-4.239c2.582-1.841 4-4.057 4-6.261 0-3.381-2.017-5.598-6.348-6.977zM33 13.5c0-7.696-7.018-13.5-16.323-13.5-9.352 0-16.677 5.931-16.677 13.502 0 4.539 3.211 7.791 6 9.759v6.636c0 0.17 0.086 0.327 0.228 0.42 0.083 0.053 0.177 0.080 0.272 0.080 0.069 0 0.139-0.015 0.205-0.044 0.146-0.065 3.559-1.616 6.479-4.809 1.265 0.235 2.696 0.461 3.994 0.461 9.463 0 15.822-5.026 15.822-12.505zM17.177 25.005c-1.31 0-2.799-0.251-4.083-0.496-0.173-0.031-0.351 0.028-0.468 0.159-2.050 2.312-4.459 3.781-5.626 4.414v-6.082c0-0.165-0.081-0.318-0.217-0.412-2.638-1.815-5.783-4.863-5.783-9.086 0-7.011 6.886-12.502 15.677-12.502 8.736 0 15.323 5.374 15.323 12.5 0 6.882-5.957 11.505-14.823 11.505zM16.5 11.5c-1.103 0-2 0.897-2 2s0.897 2 2 2 2-0.897 2-2-0.897-2-2-2zM16.5 14.5c-0.551 0-1-0.448-1-1s0.449-1 1-1 1 0.448 1 1-0.449 1-1 1zM23.5 11.5c-1.103 0-2 0.897-2 2s0.897 2 2 2 2-0.897 2-2-0.897-2-2-2zM23.5 14.5c-0.551 0-1-0.448-1-1s0.449-1 1-1 1 0.448 1 1-0.449 1-1 1zM9.5 11.595c-1.103 0-2 0.897-2 2s0.897 2 2 2 2-0.897 2-2-0.897-2-2-2zM9.5 14.595c-0.551 0-1-0.448-1-1s0.449-1 1-1 1 0.448 1 1-0.449 1-1 1z">
            </path>
        </symbol>
        <symbol id="icon-paperplane" viewBox="0 0 32 32">
            <path
                d="M31.543 0.16c-0.166-0.107-0.355-0.16-0.543-0.16-0.193 0-0.387 0.055-0.555 0.168l-30 20c-0.309 0.205-0.479 0.566-0.439 0.936 0.038 0.369 0.278 0.688 0.623 0.824l7.824 3.131 3.679 6.438c0.176 0.309 0.503 0.5 0.857 0.504 0.004 0 0.007 0 0.011 0 0.351 0 0.677-0.186 0.857-0.486l2.077-3.463 9.695 3.877c0.119 0.048 0.244 0.071 0.371 0.071 0.17 0 0.338-0.043 0.49-0.129 0.264-0.148 0.445-0.408 0.496-0.707l5-30c0.065-0.393-0.109-0.787-0.443-1.004zM3.136 20.777l23.175-15.451-16.85 18.037c-0.089-0.053-0.168-0.123-0.266-0.162l-6.059-2.424zM10.189 24.066c-0.002-0.004-0.005-0.006-0.007-0.010l18.943-20.275-16.149 25.162-2.787-4.877zM25.217 29.609l-8.541-3.416c-0.203-0.080-0.414-0.107-0.623-0.119l13.152-20.388-3.988 23.923z">
            </path>
        </symbol>
        <symbol id="icon-star" viewBox="0 0 32 32">
            <path
                d="M16 23l9 6-4-10 9-6h-10l-4-10-4 10h-10l9 6-4 10 9-6zM16 21.753l-6.8 4.547 3.2-7.7-7.2-4.6h7.5l3.3-8.5 3.3 8.5h7.5l-7.2 4.6 3.2 7.7-6.8-4.547z">
            </path>
        </symbol>
        <symbol id="icon-arrow-thin-right" viewBox="0 0 20 20">
            <path d="M16.172 9l-6.071-6.071 1.414-1.414 8.485 8.485-8.485 8.485-1.414-1.414 6.071-6.071h-16.172v-2z">
            </path>
        </symbol>
        <symbol id="icon-arrow-thin-left" viewBox="0 0 20 20">
            <path
                d="M3.828 9l6.071-6.071-1.414-1.414-8.485 8.485 8.485 8.485 1.414-1.414-6.071-6.071h16.172v-2h-16.172z">
            </path>
        </symbol>
        <symbol id="icon-clear" viewBox="0 0 24 24">
            <path
                d="M18.984 6.422l-5.578 5.578 5.578 5.578-1.406 1.406-5.578-5.578-5.578 5.578-1.406-1.406 5.578-5.578-5.578-5.578 1.406-1.406 5.578 5.578 5.578-5.578z">
            </path>
        </symbol>
        <symbol id="icon-menu" viewBox="0 0 24 24">
            <path
                d="M3 13h18c0.552 0 1-0.448 1-1s-0.448-1-1-1h-18c-0.552 0-1 0.448-1 1s0.448 1 1 1zM3 7h18c0.552 0 1-0.448 1-1s-0.448-1-1-1h-18c-0.552 0-1 0.448-1 1s0.448 1 1 1zM3 19h18c0.552 0 1-0.448 1-1s-0.448-1-1-1h-18c-0.552 0-1 0.448-1 1s0.448 1 1 1z">
            </path>
        </symbol>
        <symbol id="icon-user" viewBox="0 0 24 24">
            <path
                d="M21 21v-2c0-1.38-0.561-2.632-1.464-3.536s-2.156-1.464-3.536-1.464h-8c-1.38 0-2.632 0.561-3.536 1.464s-1.464 2.156-1.464 3.536v2c0 0.552 0.448 1 1 1s1-0.448 1-1v-2c0-0.829 0.335-1.577 0.879-2.121s1.292-0.879 2.121-0.879h8c0.829 0 1.577 0.335 2.121 0.879s0.879 1.292 0.879 2.121v2c0 0.552 0.448 1 1 1s1-0.448 1-1zM17 7c0-1.38-0.561-2.632-1.464-3.536s-2.156-1.464-3.536-1.464-2.632 0.561-3.536 1.464-1.464 2.156-1.464 3.536 0.561 2.632 1.464 3.536 2.156 1.464 3.536 1.464 2.632-0.561 3.536-1.464 1.464-2.156 1.464-3.536zM15 7c0 0.829-0.335 1.577-0.879 2.121s-1.292 0.879-2.121 0.879-1.577-0.335-2.121-0.879-0.879-1.292-0.879-2.121 0.335-1.577 0.879-2.121 1.292-0.879 2.121-0.879 1.577 0.335 2.121 0.879 0.879 1.292 0.879 2.121z">
            </path>
        </symbol>
        <symbol id="icon-shopping-bag" viewBox="0 0 24 24">
            <path
                d="M19 5h-14l1.5-2h11zM21.794 5.392l-2.994-3.992c-0.196-0.261-0.494-0.399-0.8-0.4h-12c-0.326 0-0.616 0.156-0.8 0.4l-2.994 3.992c-0.043 0.056-0.081 0.117-0.111 0.182-0.065 0.137-0.096 0.283-0.095 0.426v14c0 0.828 0.337 1.58 0.879 2.121s1.293 0.879 2.121 0.879h14c0.828 0 1.58-0.337 2.121-0.879s0.879-1.293 0.879-2.121v-14c0-0.219-0.071-0.422-0.189-0.585-0.004-0.005-0.007-0.010-0.011-0.015zM4 7h16v13c0 0.276-0.111 0.525-0.293 0.707s-0.431 0.293-0.707 0.293h-14c-0.276 0-0.525-0.111-0.707-0.293s-0.293-0.431-0.293-0.707zM15 10c0 0.829-0.335 1.577-0.879 2.121s-1.292 0.879-2.121 0.879-1.577-0.335-2.121-0.879-0.879-1.292-0.879-2.121c0-0.552-0.448-1-1-1s-1 0.448-1 1c0 1.38 0.561 2.632 1.464 3.536s2.156 1.464 3.536 1.464 2.632-0.561 3.536-1.464 1.464-2.156 1.464-3.536c0-0.552-0.448-1-1-1s-1 0.448-1 1z">
            </path>
        </symbol>
        <symbol id="icon-search" viewBox="0 0 24 24">
            <path
                d="M16.041 15.856c-0.034 0.026-0.067 0.055-0.099 0.087s-0.060 0.064-0.087 0.099c-1.258 1.213-2.969 1.958-4.855 1.958-1.933 0-3.682-0.782-4.95-2.050s-2.050-3.017-2.050-4.95 0.782-3.682 2.050-4.95 3.017-2.050 4.95-2.050 3.682 0.782 4.95 2.050 2.050 3.017 2.050 4.95c0 1.886-0.745 3.597-1.959 4.856zM21.707 20.293l-3.675-3.675c1.231-1.54 1.968-3.493 1.968-5.618 0-2.485-1.008-4.736-2.636-6.364s-3.879-2.636-6.364-2.636-4.736 1.008-6.364 2.636-2.636 3.879-2.636 6.364 1.008 4.736 2.636 6.364 3.879 2.636 6.364 2.636c2.125 0 4.078-0.737 5.618-1.968l3.675 3.675c0.391 0.391 1.024 0.391 1.414 0s0.391-1.024 0-1.414z">
            </path>
        </symbol>
        <symbol id="icon-instagram" viewBox="0 0 24 24">
            <path
                d="M7 1c-1.657 0-3.158 0.673-4.243 1.757s-1.757 2.586-1.757 4.243v10c0 1.657 0.673 3.158 1.757 4.243s2.586 1.757 4.243 1.757h10c1.657 0 3.158-0.673 4.243-1.757s1.757-2.586 1.757-4.243v-10c0-1.657-0.673-3.158-1.757-4.243s-2.586-1.757-4.243-1.757zM7 3h10c1.105 0 2.103 0.447 2.828 1.172s1.172 1.723 1.172 2.828v10c0 1.105-0.447 2.103-1.172 2.828s-1.723 1.172-2.828 1.172h-10c-1.105 0-2.103-0.447-2.828-1.172s-1.172-1.723-1.172-2.828v-10c0-1.105 0.447-2.103 1.172-2.828s1.723-1.172 2.828-1.172zM16.989 11.223c-0.15-0.972-0.571-1.857-1.194-2.567-0.754-0.861-1.804-1.465-3.009-1.644-0.464-0.074-0.97-0.077-1.477-0.002-1.366 0.202-2.521 0.941-3.282 1.967s-1.133 2.347-0.93 3.712 0.941 2.521 1.967 3.282 2.347 1.133 3.712 0.93 2.521-0.941 3.282-1.967 1.133-2.347 0.93-3.712zM15.011 11.517c0.122 0.82-0.1 1.609-0.558 2.227s-1.15 1.059-1.969 1.18-1.609-0.1-2.227-0.558-1.059-1.15-1.18-1.969 0.1-1.609 0.558-2.227 1.15-1.059 1.969-1.18c0.313-0.046 0.615-0.042 0.87-0.002 0.74 0.11 1.366 0.47 1.818 0.986 0.375 0.428 0.63 0.963 0.72 1.543zM17.5 7.5c0.552 0 1-0.448 1-1s-0.448-1-1-1-1 0.448-1 1 0.448 1 1 1z">
            </path>
        </symbol>

        <symbol id="icon-righ-arrow" viewBox="0 0 487 487">
            <path d="M482,234.839l-116.5-67.261c-4.783-2.761-10.898-1.122-13.66,3.66c-2.762,4.783-1.122,10.898,3.66,13.66l84.213,48.62H10
                c-5.523,0-10,4.478-10,10c0,5.521,4.477,10,10,10h429.646L355.5,302.101c-4.783,2.762-6.422,8.877-3.66,13.66
                c1.853,3.208,5.213,5.002,8.669,5.002c1.696,0,3.416-0.434,4.991-1.342L482,252.159c3.094-1.786,5-5.088,5-8.66
                C487,239.927,485.094,236.625,482,234.839z" />
        </symbol>

        <symbol id="icon-lef-arrow" viewBox="0 0 487 487">
            <path
                d="M482,234.839l-116.5-67.261c-4.783-2.761-10.898-1.122-13.66,3.66c-2.762,4.783-1.122,10.898,3.66,13.66l84.213,48.62H10   c-5.523,0-10,4.478-10,10c0,5.521,4.477,10,10,10h429.646L355.5,302.101c-4.783,2.762-6.422,8.877-3.66,13.66   c1.853,3.208,5.213,5.002,8.669,5.002c1.696,0,3.416-0.434,4.991-1.342L482,252.159c3.094-1.786,5-5.088,5-8.66   C487,239.927,485.094,236.625,482,234.839z" />
        </symbol>

        <symbol id="icon-star-la" viewBox="0 0 43.244 43.244">
            <path d="M22.69,1.785l4.555,14.143l14.872-0.016c0.619,0,1.127,0.492,1.127,1.111
                c0,0.365-0.19,0.698-0.46,0.905l0,0l-12.047,8.714l4.619,14.142c0.19,0.587-0.127,1.206-0.714,1.397
                c-0.381,0.127-0.794,0.032-1.079-0.206L21.626,33.26L9.611,42.022c-0.508,0.365-1.206,0.254-1.555-0.238
                c-0.222-0.302-0.27-0.683-0.159-1H7.881l4.635-14.142L0.469,17.927c-0.508-0.365-0.619-1.063-0.254-1.556
                c0.238-0.333,0.603-0.492,0.984-0.46l14.793,0.016l4.571-14.143c0.19-0.587,0.809-0.905,1.397-0.73
                C22.325,1.182,22.578,1.451,22.69,1.785L22.69,1.785z M25.372,17.387L21.626,5.753l-3.762,11.635l0,0
                c-0.143,0.46-0.571,0.778-1.063,0.778L4.579,18.149l9.904,7.159l0,0c0.381,0.286,0.556,0.778,0.397,1.254l-3.793,11.619l9.857-7.19
                c0.381-0.286,0.921-0.302,1.333-0.016l9.872,7.206l-3.778-11.571c-0.175-0.46-0.032-1,0.381-1.302l9.92-7.159l-12.19,0.016
                C25.991,18.197,25.531,17.879,25.372,17.387L25.372,17.387z" />
        </symbol>


        <symbol id="icon-facebook" viewBox="0 0 291.319 291.319">
            <g>
                <path style="fill:#3B5998;" d="M145.659,0c80.45,0,145.66,65.219,145.66,145.66c0,80.45-65.21,145.659-145.66,145.659
                    S0,226.109,0,145.66C0,65.219,65.21,0,145.659,0z" />
                <path style="fill:#FFFFFF;" d="M163.394,100.277h18.772v-27.73h-22.067v0.1c-26.738,0.947-32.218,15.977-32.701,31.763h-0.055
                    v13.847h-18.207v27.156h18.207v72.793h27.439v-72.793h22.477l4.342-27.156h-26.81v-8.366
                    C154.791,104.556,158.341,100.277,163.394,100.277z" />
            </g>
        </symbol>


        <symbol id="icon-twitter" viewBox="0 0 512 512">
            <path style="fill:#03A9F4;" d="M512,97.248c-19.04,8.352-39.328,13.888-60.48,16.576c21.76-12.992,38.368-33.408,46.176-58.016
            c-20.288,12.096-42.688,20.64-66.56,25.408C411.872,60.704,384.416,48,354.464,48c-58.112,0-104.896,47.168-104.896,104.992
            c0,8.32,0.704,16.32,2.432,23.936c-87.264-4.256-164.48-46.08-216.352-109.792c-9.056,15.712-14.368,33.696-14.368,53.056
            c0,36.352,18.72,68.576,46.624,87.232c-16.864-0.32-33.408-5.216-47.424-12.928c0,0.32,0,0.736,0,1.152
            c0,51.008,36.384,93.376,84.096,103.136c-8.544,2.336-17.856,3.456-27.52,3.456c-6.72,0-13.504-0.384-19.872-1.792
            c13.6,41.568,52.192,72.128,98.08,73.12c-35.712,27.936-81.056,44.768-130.144,44.768c-8.608,0-16.864-0.384-25.12-1.44
            C46.496,446.88,101.6,464,161.024,464c193.152,0,298.752-160,298.752-298.688c0-4.64-0.16-9.12-0.384-13.568
            C480.224,136.96,497.728,118.496,512,97.248z" />
        </symbol>


        <symbol id="icon-google" viewBox="0 0 512 512">
            <path style="fill:#FBBB00;" d="M113.47,309.408L95.648,375.94l-65.139,1.378C11.042,341.211,0,299.9,0,256
	c0-42.451,10.324-82.483,28.624-117.732h0.014l57.992,10.632l25.404,57.644c-5.317,15.501-8.215,32.141-8.215,49.456
	C103.821,274.792,107.225,292.797,113.47,309.408z" />
            <path style="fill:#518EF8;" d="M507.527,208.176C510.467,223.662,512,239.655,512,256c0,18.328-1.927,36.206-5.598,53.451
	c-12.462,58.683-45.025,109.925-90.134,146.187l-0.014-0.014l-73.044-3.727l-10.338-64.535
	c29.932-17.554,53.324-45.025,65.646-77.911h-136.89V208.176h138.887L507.527,208.176L507.527,208.176z" />
            <path style="fill:#28B446;" d="M416.253,455.624l0.014,0.014C372.396,490.901,316.666,512,256,512
	c-97.491,0-182.252-54.491-225.491-134.681l82.961-67.91c21.619,57.698,77.278,98.771,142.53,98.771
	c28.047,0,54.323-7.582,76.87-20.818L416.253,455.624z" />
            <path style="fill:#F14336;" d="M419.404,58.936l-82.933,67.896c-23.335-14.586-50.919-23.012-80.471-23.012
	c-66.729,0-123.429,42.957-143.965,102.724l-83.397-68.276h-0.014C71.23,56.123,157.06,0,256,0
	C318.115,0,375.068,22.126,419.404,58.936z" />
        </symbol>

        <symbol id="icon-right-arrow" viewBox="0 0 512 512">
            <path d="M506.134,241.843c-0.006-0.006-0.011-0.013-0.018-0.019l-104.504-104c-7.829-7.791-20.492-7.762-28.285,0.068
			c-7.792,7.829-7.762,20.492,0.067,28.284L443.558,236H20c-11.046,0-20,8.954-20,20c0,11.046,8.954,20,20,20h423.557
			l-70.162,69.824c-7.829,7.792-7.859,20.455-0.067,28.284c7.793,7.831,20.457,7.858,28.285,0.068l104.504-104
			c0.006-0.006,0.011-0.013,0.018-0.019C513.968,262.339,513.943,249.635,506.134,241.843z" />
        </symbol>

        <symbol id="icon-left-arrow" viewBox="0 0 512 512">
            <path d="M492,236H68.442l70.164-69.824c7.829-7.792,7.859-20.455,0.067-28.284c-7.792-7.83-20.456-7.859-28.285-0.068
			l-104.504,104c-0.007,0.006-0.012,0.013-0.018,0.019c-7.809,7.792-7.834,20.496-0.002,28.314c0.007,0.006,0.012,0.013,0.018,0.019
			l104.504,104c7.828,7.79,20.492,7.763,28.285-0.068c7.792-7.829,7.762-20.492-0.067-28.284L68.442,276H492
			c11.046,0,20-8.954,20-20C512,244.954,503.046,236,492,236z" />
        </symbol>

        
        <symbol id="icon-left-arrow" viewBox="0 0 512 512">
   		<path d="M461.539,157.069L266.077,281.954L70.617,157.069c-21.359-13.641-49.75-7.393-63.391,13.966    c-13.647,21.365-7.393,49.743,13.966,63.392l220.179,140.674c7.534,4.816,16.126,7.222,24.712,7.222    c8.587,0,17.179-2.405,24.713-7.222l220.18-140.674c21.358-13.648,27.619-42.033,13.965-63.392    C511.282,149.67,482.903,143.434,461.539,157.069z" fill="#000000" data-original="#000000" style="" class=""/>

        </symbol>
    </defs>
</svg>